<?xml version="1.0" encoding="utf-8"?>
<!-- Generator: Adobe Illustrator 24.0.1, SVG Export Plug-In . SVG Version: 6.00 Build 0)  -->
<svg version="1.1" id="Ebene_1" xmlns="http://www.w3.org/2000/svg" xmlns:xlink="http://www.w3.org/1999/xlink" x="0px" y="0px"
	 viewBox="0 0 64 64" style="enable-background:new 0 0 64 64;" xml:space="preserve">
<style type="text/css">
	.st0{fill:#569727;}
	.st1{fill:#135427;}
	.st2{fill:#9AC31C;}
	.st3{fill:#FFFFFF;}
	.st4{fill:#267424;}
	.st5{fill:none;stroke:#135427;stroke-linecap:round;stroke-miterlimit:10;}
	.st6{fill:#A5D5F4;}
	.st7{fill:#D01B17;}
	.st8{fill:none;stroke:#135427;stroke-width:1.5;stroke-linecap:round;stroke-miterlimit:10;}
	.st9{fill:none;stroke:#000000;stroke-width:0.25;stroke-linecap:round;stroke-linejoin:round;stroke-miterlimit:10;}
</style>
<path class="st0" d="M35.46,15.8c0,0,4.72-1.35,5.54-7.54c0,0,1.38,3.85,5.13,2.85c0,0-6.96,3.46-6.41,7.4
	C39.73,18.51,38.43,15.59,35.46,15.8z"/>
<ellipse transform="matrix(0.0348 -0.9994 0.9994 0.0348 34.9755 52.2476)" class="st1" cx="44.54" cy="8.02" rx="3.38" ry="3.56"/>
<path class="st0" d="M44.92,21.29c0,0,4.36,0.36,7.25-4.45c0,0-0.23,3.59,3.21,3.94c0,0-6.96,0.66-7.91,4.07
	C47.47,24.84,47.44,22.04,44.92,21.29z"/>
<ellipse transform="matrix(3.640159e-03 -1 1 3.640159e-03 37.2213 72.8387)" class="st1" cx="55.16" cy="17.74" rx="2.99" ry="3.16"/>
<path class="st0" d="M26.34,16.71c0,0,2.59-4.16-0.95-9.31c0,0,3.61,1.93,5.72-1.33c0,0-2.84,7.23,0.21,9.79
	C31.33,15.86,28.4,14.57,26.34,16.71z"/>
<ellipse transform="matrix(0.7646 -0.6445 0.6445 0.7646 3.4305 19.0943)" class="st1" cx="27.86" cy="4.85" rx="3.56" ry="3.38"/>
<path class="st0" d="M20.24,22.39c0,0-1.43-4.69-7.63-5.42c0,0,3.83-1.44,2.77-5.18c0,0,3.57,6.9,7.5,6.29
	C22.88,18.08,19.99,19.43,20.24,22.39z"/>
<ellipse transform="matrix(0.0189 -0.9998 0.9998 0.0189 -1.36 25.503)" class="st1" cx="12.31" cy="13.44" rx="3.56" ry="3.38"/>
<path class="st0" d="M16.48,30.15c0,0-3.87-3.01-9.36-0.02c0,0,2.29-3.39-0.73-5.83c0,0,6.9,3.57,9.76,0.8
	C16.15,25.1,14.56,27.88,16.48,30.15z"/>
<ellipse transform="matrix(0.8269 -0.5624 0.5624 0.8269 -14.5828 7.4704)" class="st1" cx="4.84" cy="27.42" rx="3.38" ry="3.56"/>
<path class="st0" d="M18.03,39.84c0,0-4.81-0.97-8.39,4.14c0,0,0.54-4.05-3.24-4.89c0,0,7.77,0.13,9.09-3.62
	C15.49,35.46,15.3,38.65,18.03,39.84z"/>
<ellipse transform="matrix(0.4908 -0.8713 0.8713 0.4908 -33.8322 27.2445)" class="st1" cx="6.39" cy="42.57" rx="3.38" ry="3.56"/>
<path class="st0" d="M23.26,47.33c0,0-4.87,0.59-6.66,6.57c0,0-0.76-4.02-4.62-3.62c0,0,7.41-2.32,7.49-6.3
	C19.47,43.98,20.3,47.07,23.26,47.33z"/>
<ellipse transform="matrix(0.1917 -0.9814 0.9814 0.1917 -42.0257 56.1392)" class="st1" cx="13.07" cy="53.58" rx="3.38" ry="3.56"/>
<path class="st0" d="M32.42,47.86c0,0-3.37,3.57-0.92,9.31c0,0-3.15-2.6-5.87,0.17c0,0,4.22-6.52,1.73-9.63
	C27.37,47.71,29.98,49.55,32.42,47.86z"/>
<ellipse transform="matrix(0.8771 -0.4802 0.4802 0.8771 -24.9098 21.0007)" class="st1" cx="28.59" cy="59.18" rx="3.56" ry="3.38"/>
<path class="st0" d="M41.85,45.03c0,0-0.68,4.86,4.64,8.13c0,0-4.08-0.3-4.69,3.53c0,0-0.33-7.76-4.16-8.86
	C37.64,47.83,40.84,47.83,41.85,45.03z"/>
<ellipse transform="matrix(0.4374 -0.8993 0.8993 0.4374 -25.3212 72.4949)" class="st1" cx="45.28" cy="56.48" rx="3.56" ry="3.38"/>
<path class="st0" d="M48.16,37.64c0,0,2.06,4.45,8.3,4.32c0,0-3.59,1.96-2.03,5.51c0,0-4.48-6.34-8.3-5.19
	C46.14,42.28,48.82,40.54,48.16,37.64z"/>
<ellipse transform="matrix(0.9929 -0.1192 0.1192 0.9929 -5.0063 7.1489)" class="st1" cx="57.24" cy="45.41" rx="3.38" ry="3.56"/>
<path class="st0" d="M47.95,28.13c0,0,3.88,3,9.36-0.01c0,0-2.28,3.4,0.75,5.82c0,0-6.91-3.55-9.76-0.77
	C48.29,33.17,49.87,30.4,47.95,28.13z"/>
<ellipse transform="matrix(0.8254 -0.5645 0.5645 0.8254 -6.9982 39.0222)" class="st1" cx="59.59" cy="30.83" rx="3.38" ry="3.56"/>
<circle class="st2" cx="32.26" cy="32.41" r="19.19"/>
<ellipse class="st3" cx="26.94" cy="27.93" rx="3.59" ry="4.48"/>
<ellipse cx="26.85" cy="29.34" rx="2.19" ry="2.07"/>
<path class="st0" d="M32.87,36.88c0,0-3.61-1.62-7.51,1.62c0,0,1.27-2.98-1.55-4.32c0,0,6.12,1.52,7.95-1.09
	C31.76,33.09,30.95,35.48,32.87,36.88z"/>
<ellipse transform="matrix(0.3323 -0.9432 0.9432 0.3323 -19.322 46.3597)" class="st1" cx="23.08" cy="36.83" rx="2.7" ry="2.85"/>
<circle class="st3" cx="27.57" cy="28.55" r="0.48"/>
<circle class="st4" cx="36.38" cy="17.25" r="0.42"/>
<circle class="st4" cx="37.85" cy="17.41" r="0.42"/>
<circle class="st4" cx="37.17" cy="18.45" r="0.36"/>
<circle class="st0" cx="18.19" cy="24.7" r="0.42"/>
<circle class="st0" cx="19.66" cy="24.86" r="0.42"/>
<circle class="st0" cx="18.98" cy="25.9" r="0.36"/>
<circle class="st0" cx="47.21" cy="35.23" r="0.42"/>
<circle class="st0" cx="48.68" cy="35.39" r="0.42"/>
<circle class="st0" cx="48.01" cy="36.42" r="0.36"/>
<circle class="st1" cx="23.07" cy="45.09" r="0.42"/>
<circle class="st1" cx="24.54" cy="45.25" r="0.42"/>
<circle class="st1" cx="23.87" cy="46.29" r="0.36"/>
<ellipse class="st3" cx="36.96" cy="28.07" rx="3.59" ry="4.48"/>
<ellipse cx="36.86" cy="29.49" rx="2.19" ry="2.07"/>
<circle class="st3" cx="37.59" cy="28.7" r="0.48"/>
<path class="st0" d="M23.49,26.7c0,0,2.62-1.1,6.9,0c0,0-0.6-3.2-3.45-3.26C24.09,23.38,23.49,26.7,23.49,26.7z"/>
<path class="st0" d="M33.51,26.75c0,0,2.62-1.1,6.9,0c0,0-0.6-3.2-3.45-3.26C34.11,23.43,33.51,26.75,33.51,26.75z"/>
<path class="st5" d="M35.99,21.35c0,0,2.33,2.41,6.12,2.05"/>
<path class="st5" d="M27.46,21.35c0,0-2.13,2.41-5.6,2.05"/>
<path class="st6" d="M38.49,41.51c0,0,5.99,6.83,9.1,8.71c0.63,0.38,1.14,0.43,1.46,0.32c2.31-0.82-8.85-10.5-8.85-10.5h-1.32
	L38.49,41.51z"/>
<ellipse class="st6" cx="49.08" cy="50.39" rx="1.82" ry="1.7"/>
<path class="st7" d="M48.34,50.2c0,0,0.81-0.06,0.47-0.58c-0.34-0.52-9.58-9.73-9.58-9.73h-0.59l-0.16,0.59L48.34,50.2z"/>
<circle class="st7" cx="49.09" cy="50.33" r="0.9"/>
<polyline class="st8" points="31.33,43.98 32.42,42.26 35.04,43.12 35.96,41.08 38.26,41.52 38.74,39.72 40.39,39.72 40.8,37.99 
	42.07,37.99 "/>
<line class="st9" x1="46.14" y1="48.77" x2="46.72" y2="48.08"/>
<line class="st9" x1="45.16" y1="47.98" x2="45.74" y2="47.29"/>
<line class="st9" x1="44.41" y1="47.25" x2="44.99" y2="46.56"/>
<line class="st9" x1="43.63" y1="46.56" x2="44.21" y2="45.87"/>
</svg>
